<svg height="448pt" viewBox="-88 0 448 448.00001" width="448pt" xmlns="http://www.w3.org/2000/svg"><path d="m242.679688 200h-213.359376l12.847657 176h187.664062zm-64.589844 124.992188-.257813.3125c-.113281.109374-.183593.238281-.296875.351562-15.632812 15.59375-40.933594 15.59375-56.566406 0l-22.625-22.632812c-15.292969-15.222657-15.667969-39.863282-.839844-55.542969.0625-.089844.144532-.167969.207032-.25.234374-.246094.394531-.535157.632812-.796875 15.632812-15.597656 40.9375-15.597656 56.566406 0l22.625 22.621094c15.410156 15.363281 15.65625 40.242187.554688 55.90625zm0 0"/><path d="m143.601562 257.777344c-7.710937-7.753906-19.714843-9.257813-29.097656-3.640625l7.609375 12.800781c2.566407 4.351562 6.449219 7.773438 11.085938 9.773438l19.777343 8.570312c8.347657 3.640625 15.203126 10.019531 19.429688 18.085938 2.277344-8.214844-.09375-17.019532-6.183594-22.984376zm0 0"/><path d="m146.617188 300-19.777344-8.566406c-7.730469-3.339844-14.207032-9.042969-18.496094-16.289063l-4.503906-7.59375c-2.855469 8.511719-.597656 17.90625 5.816406 24.183594l22.625 22.632813c7.867188 7.828124 20.074219 9.238281 29.519531 3.417968l-3.289062-6.539062c-2.523438-5.027344-6.734375-9.007813-11.894531-11.246094zm0 0"/><path d="m224.558594 448 4.097656-56h-185.3125l4.097656 56zm0 0"/><path d="m0 80h272v40h-272zm0 0"/><path d="m246.238281 64-11.511719-57.601562c-.757812-3.726563-4.042968-6.40234425-7.847656-6.398438h-181.757812c-3.804688-.00390625-7.089844 2.671875-7.847656 6.398438l-11.511719 57.601562zm0 0"/><path d="m247.390625 136h-222.78125l3.511719 48h215.757812zm0 0"/></svg>